<?xml version="1.0" encoding="utf-8"?>
<svg version="1.1" xmlns:xlink="http://www.w3.org/1999/xlink" width="27px" height="20px" xmlns="http://www.w3.org/2000/svg">
  <g transform="matrix(1 0 0 1 -426 -588 )">
    <path d="M 427 592  A 3 3 0 0 1 430 589 L 449 589  A 3 3 0 0 1 452 592 L 452 604  A 3 3 0 0 1 449 607 L 430 607  A 3 3 0 0 1 427 604 L 427 592  Z " fill-rule="nonzero" fill="#f5f5f5" stroke="none" fill-opacity="0" />
    <path d="M 426.5 592  A 3.5 3.5 0 0 1 430 588.5 L 449 588.5  A 3.5 3.5 0 0 1 452.5 592 L 452.5 604  A 3.5 3.5 0 0 1 449 607.5 L 430 607.5  A 3.5 3.5 0 0 1 426.5 604 L 426.5 592  Z " stroke-width="1" stroke-dasharray="3,1" stroke="#d9d9d9" fill="none" stroke-dashoffset="0.5" />
  </g>
</svg>