<?xml version="1.0" encoding="utf-8"?>
<svg version="1.1" xmlns:xlink="http://www.w3.org/1999/xlink" width="57px" height="24px" xmlns="http://www.w3.org/2000/svg">
  <defs>
    <mask fill="white" id="clip71">
      <path d="M 0 20  L 0 4  C 0 1.759999999999991  1.759999999999991 0  4 0  L 39 0  L 53 0  C 55.24000000000001 0  57 1.759999999999991  57 4  L 57 20  C 57 22.24000000000001  55.24000000000001 24  53 24  L 4 24  C 1.759999999999991 24  0 22.24000000000001  0 20  Z " fill-rule="evenodd" />
    </mask>
  </defs>
  <g transform="matrix(1 0 0 1 -1319 -293 )">
    <path d="M 0 20  L 0 4  C 0 1.759999999999991  1.759999999999991 0  4 0  L 39 0  L 53 0  C 55.24000000000001 0  57 1.759999999999991  57 4  L 57 20  C 57 22.24000000000001  55.24000000000001 24  53 24  L 4 24  C 1.759999999999991 24  0 22.24000000000001  0 20  Z " fill-rule="nonzero" fill="#f7f7f7" stroke="none" transform="matrix(1 0 0 1 1319 293 )" />
    <path d="M 0 20  L 0 4  C 0 1.759999999999991  1.759999999999991 0  4 0  L 39 0  L 53 0  C 55.24000000000001 0  57 1.759999999999991  57 4  L 57 20  C 57 22.24000000000001  55.24000000000001 24  53 24  L 4 24  C 1.759999999999991 24  0 22.24000000000001  0 20  Z " stroke-width="2" stroke="#ebebeb" fill="none" transform="matrix(1 0 0 1 1319 293 )" mask="url(#clip71)" />
  </g>
</svg>