<?xml version="1.0" encoding="utf-8"?>
<svg version="1.1" xmlns:xlink="http://www.w3.org/1999/xlink" width="15px" height="16px" xmlns="http://www.w3.org/2000/svg">
  <g transform="matrix(1 0 0 1 -2195 -718 )">
    <path d="M 3.8266225961538463 12.069444444444445  C 4.051983173076923 12.300925925925926  4.164663461538462 12.580246913580245  4.164663461538462 12.907407407407408  C 4.164663461538462 13.234567901234566  4.051983173076923 13.51388888888889  3.8266225961538463 13.74537037037037  C 3.601262019230769 13.976851851851851  3.3293269230769234 14.092592592592592  3.010817307692308 14.092592592592592  C 2.698317307692308 14.092592592592592  2.427884615384616 13.975308641975309  2.199519230769231 13.74074074074074  C 1.9711538461538463 13.506172839506174  1.856971153846154 13.228395061728396  1.856971153846154 12.907407407407408  C 1.856971153846154 12.580246913580245  1.969651442307692 12.300925925925926  2.195012019230769 12.069444444444445  C 2.4203725961538463 11.837962962962962  2.6923076923076925 11.722222222222221  3.010817307692308 11.722222222222221  C 3.3293269230769234 11.722222222222221  3.601262019230769 11.837962962962962  3.8266225961538463 12.069444444444445  Z M 8.315805288461538 13.976851851851851  C 8.541165865384615 14.208333333333334  8.653846153846153 14.487654320987655  8.653846153846153 14.814814814814815  C 8.653846153846153 15.141975308641975  8.541165865384615 15.421296296296296  8.315805288461538 15.652777777777779  C 8.090444711538462 15.88425925925926  7.818509615384615 16  7.5 16  C 7.181490384615385 16  6.909555288461539 15.88425925925926  6.684194711538462 15.652777777777779  C 6.458834134615384 15.421296296296296  6.346153846153846 15.141975308641975  6.346153846153846 14.814814814814815  C 6.346153846153846 14.487654320987655  6.458834134615384 14.208333333333334  6.684194711538462 13.976851851851851  C 6.909555288461539 13.74537037037037  7.181490384615385 13.62962962962963  7.5 13.62962962962963  C 7.818509615384615 13.62962962962963  8.090444711538462 13.74537037037037  8.315805288461538 13.976851851851851  Z M 1.969651442307692 7.458333333333334  C 2.195012019230769 7.689814814814815  2.307692307692308 7.969135802469136  2.307692307692308 8.296296296296298  C 2.307692307692308 8.623456790123456  2.195012019230769 8.902777777777779  1.969651442307692 9.13425925925926  C 1.7442908653846154 9.36574074074074  1.4723557692307694 9.481481481481481  1.153846153846154 9.481481481481481  C 0.8353365384615387 9.481481481481481  0.5634014423076923 9.36574074074074  0.33804086538461536 9.13425925925926  C 0.11268028846153846 8.902777777777779  0 8.623456790123456  0 8.296296296296298  C 0 7.969135802469136  0.11268028846153846 7.689814814814815  0.33804086538461536 7.458333333333334  C 0.5634014423076923 7.226851851851851  0.8353365384615387 7.111111111111111  1.153846153846154 7.111111111111111  C 1.4723557692307694 7.111111111111111  1.7442908653846154 7.226851851851851  1.969651442307692 7.458333333333334  Z M 12.804987980769232 12.069444444444445  C 13.030348557692308 12.300925925925926  13.143028846153847 12.580246913580245  13.143028846153847 12.907407407407408  C 13.143028846153847 13.228395061728396  13.028846153846155 13.506172839506174  12.800480769230768 13.74074074074074  C 12.572115384615385 13.975308641975309  12.301682692307693 14.092592592592592  11.989182692307692 14.092592592592592  C 11.670673076923077 14.092592592592592  11.398737980769232 13.976851851851851  11.173377403846153 13.74537037037037  C 10.948016826923077 13.51388888888889  10.835336538461538 13.234567901234566  10.835336538461538 12.907407407407408  C 10.835336538461538 12.580246913580245  10.948016826923077 12.300925925925926  11.173377403846153 12.069444444444445  C 11.398737980769232 11.837962962962962  11.670673076923077 11.722222222222221  11.989182692307692 11.722222222222221  C 12.307692307692308 11.722222222222221  12.579627403846153 11.837962962962962  12.804987980769232 12.069444444444445  Z M 4.029447115384616 2.6388888888888893  C 4.311899038461538 2.929012345679011  4.453125 3.2777777777777786  4.453125 3.685185185185185  C 4.453125 4.0925925925925934  4.311899038461538 4.441358024691356  4.029447115384616 4.731481481481481  C 3.7469951923076925 5.021604938271604  3.407451923076923 5.166666666666666  3.010817307692308 5.166666666666666  C 2.614182692307692 5.166666666666666  2.2746394230769234 5.021604938271604  1.9921875 4.731481481481481  C 1.709735576923077 4.441358024691356  1.5685096153846154 4.0925925925925934  1.5685096153846154 3.685185185185185  C 1.5685096153846154 3.2777777777777786  1.709735576923077 2.929012345679011  1.9921875 2.6388888888888893  C 2.2746394230769234 2.348765432098764  2.614182692307692 2.203703703703704  3.010817307692308 2.203703703703704  C 3.407451923076923 2.203703703703704  3.7469951923076925 2.348765432098764  4.029447115384616 2.6388888888888893  Z M 14.661959134615385 7.458333333333334  C 14.887319711538463 7.689814814814815  15.000000000000004 7.969135802469136  15 8.296296296296298  C 15.000000000000004 8.623456790123456  14.887319711538463 8.902777777777779  14.661959134615385 9.13425925925926  C 14.43659855769231 9.36574074074074  14.164663461538463 9.481481481481481  13.846153846153847 9.481481481481481  C 13.527644230769232 9.481481481481481  13.255709134615385 9.36574074074074  13.030348557692308 9.13425925925926  C 12.804987980769232 8.902777777777779  12.692307692307692 8.623456790123456  12.692307692307692 8.296296296296298  C 12.692307692307692 7.969135802469136  12.804987980769232 7.689814814814815  13.030348557692308 7.458333333333334  C 13.255709134615385 7.226851851851851  13.527644230769232 7.111111111111111  13.846153846153847 7.111111111111111  C 14.164663461538463 7.111111111111111  14.43659855769231 7.226851851851851  14.661959134615385 7.458333333333334  Z M 8.725961538461538 0.518518518518519  C 9.062500000000002 0.864197530864196  9.230769230769232 1.2839506172839492  9.230769230769232 1.7777777777777786  C 9.230769230769232 2.2716049382716044  9.062500000000002 2.6913580246913558  8.725961538461538 3.0370370370370363  C 8.389423076923077 3.382716049382715  7.980769230769231 3.5555555555555554  7.5 3.5555555555555554  C 7.01923076923077 3.5555555555555554  6.610576923076924 3.382716049382715  6.274038461538462 3.0370370370370363  C 5.937500000000001 2.6913580246913558  5.769230769230769 2.2716049382716044  5.769230769230769 1.7777777777777786  C 5.769230769230769 1.2839506172839492  5.937500000000001 0.864197530864196  6.274038461538462 0.518518518518519  C 6.610576923076924 0.17283950617284027  7.01923076923077 0  7.5 0  C 7.980769230769231 0  8.389423076923077 0.17283950617284027  8.725961538461538 0.518518518518519  Z M 13.413461538461538 2.2222222222222214  C 13.810096153846153 2.6296296296296298  14.008413461538462 3.117283950617283  14.008413461538462 3.685185185185185  C 14.008413461538462 4.2592592592592595  13.810096153846153 4.748456790123456  13.413461538461538 5.152777777777779  C 13.016826923076923 5.557098765432098  12.542067307692308 5.7592592592592595  11.989182692307692 5.7592592592592595  C 11.430288461538462 5.7592592592592595  10.954026442307693 5.557098765432098  10.560396634615385 5.152777777777779  C 10.166766826923078 4.748456790123456  9.969951923076923 4.2592592592592595  9.969951923076923 3.685185185185185  C 9.969951923076923 3.117283950617283  10.166766826923078 2.6296296296296298  10.560396634615385 2.2222222222222214  C 10.954026442307693 1.8148148148148149  11.430288461538462 1.6111111111111107  11.989182692307692 1.6111111111111107  C 12.542067307692308 1.6111111111111107  13.016826923076923 1.8148148148148149  13.413461538461538 2.2222222222222214  Z " fill-rule="nonzero" fill="#8400ff" stroke="none" fill-opacity="0.35294117647058826" transform="matrix(1 0 0 1 2195 718 )" />
  </g>
</svg>