<?xml version="1.0" encoding="utf-8"?>
<svg version="1.1" xmlns:xlink="http://www.w3.org/1999/xlink" width="45px" height="33px" xmlns="http://www.w3.org/2000/svg">
  <g transform="matrix(1 0 0 1 -572 -470 )">
    <path d="M 43.5 28  L 43.5 4  C 43.794392523364536 2.0400000000000205  43.16112149532705 0.5  42.35514018691583 0.5  L 36.75 0.5  L 0 0.5  L 0 31.5  L 42.35514018691583 31.5  C 43.16112149532705 31.5  43.794392523364536 29.95999999999998  43.5 28  Z " fill-rule="nonzero" fill="#ffffff" stroke="none" transform="matrix(1 0 0 1 572 470 )" />
    <path d="M 0 31.5  L 42.35514018691583 31.5  C 43.16112149532705 31.5  43.794392523364536 29.95999999999998  43.5 28  L 43.5 4  C 43.794392523364536 2.0400000000000205  43.16112149532705 0.5  42.35514018691583 0.5  L 36.75 0.5  L 0 0.5  " stroke-width="1" stroke="#d9d9d9" fill="none" transform="matrix(1 0 0 1 572 470 )" />
  </g>
</svg>