<?xml version="1.0" encoding="utf-8"?>
<svg version="1.1" xmlns:xlink="http://www.w3.org/1999/xlink" width="733px" height="525px" xmlns="http://www.w3.org/2000/svg">
  <g transform="matrix(1 0 0 1 -312 -304 )">
    <path d="M 0.5 0  L 0.5 521.5778120184897  C 0 522.9342372881349  0.45448730009408017 524  1.032925682031986 524.5  L 730.967074317968 524.5  C 731.545512699906 524  732 522.9342372881349  732.5 521.5778120184897  L 732.5 0  L 0.5 0  Z " fill-rule="nonzero" fill="#ffffff" stroke="none" transform="matrix(1 0 0 1 312 304 )" />
    <path d="M 0.5 0  L 0.5 521.5778120184897  C 0 522.9342372881349  0.45448730009408017 524  1.032925682031986 524.5  L 730.967074317968 524.5  C 731.545512699906 524  732 522.9342372881349  732.5 521.5778120184897  L 732.5 0  " stroke-width="1" stroke="#e9e9e9" fill="none" transform="matrix(1 0 0 1 312 304 )" />
  </g>
</svg>