<?xml version="1.0" encoding="utf-8"?>
<svg version="1.1" xmlns:xlink="http://www.w3.org/1999/xlink" width="45px" height="33px" xmlns="http://www.w3.org/2000/svg">
  <g transform="matrix(1 0 0 1 -793 -175 )">
    <path d="M 43.5 28  L 43.5 4  C 43.794392523364486 2.04  43.1611214953271 0.5  42.35514018691589 0.5  L 0 0.5  L 0 31.5  L 42.35514018691589 31.5  C 43.1611214953271 31.5  43.794392523364486 29.96  43.5 28  Z " fill-rule="nonzero" fill="#ffffff" stroke="none" transform="matrix(1 0 0 1 793 175 )" />
    <path d="M 0 31.5  L 42.35514018691589 31.5  C 43.1611214953271 31.5  43.794392523364486 29.96  43.5 28  L 43.5 4  C 43.794392523364486 2.04  43.1611214953271 0.5  42.35514018691589 0.5  L 0 0.5  " stroke-width="1" stroke="#d9d9d9" fill="none" transform="matrix(1 0 0 1 793 175 )" />
  </g>
</svg>