<?xml version="1.0" encoding="utf-8"?>
<svg version="1.1" xmlns:xlink="http://www.w3.org/1999/xlink" width="32px" height="32px" xmlns="http://www.w3.org/2000/svg">
  <g transform="matrix(1 0 0 1 -608 -402 )">
    <path d="M 624 402.5  C 632.68 402.5  639.5 409.32  639.5 418  C 639.5 426.68  632.68 433.5  624 433.5  C 615.32 433.5  608.5 426.68  608.5 418  C 608.5 409.32  615.32 402.5  624 402.5  Z " fill-rule="nonzero" fill="#f3f3f3" stroke="none" />
    <path d="M 624 402.5  C 632.68 402.5  639.5 409.32  639.5 418  C 639.5 426.68  632.68 433.5  624 433.5  C 615.32 433.5  608.5 426.68  608.5 418  C 608.5 409.32  615.32 402.5  624 402.5  Z " stroke-width="1" stroke="#000000" fill="none" stroke-opacity="0.047058823529411764" />
  </g>
</svg>