<?xml version="1.0" encoding="utf-8"?>
<svg version="1.1" xmlns:xlink="http://www.w3.org/1999/xlink" width="379px" height="60px" xmlns="http://www.w3.org/2000/svg">
  <defs>
    <mask fill="white" id="clip56">
      <path d="M 0 50  L 0 10  C 0 4.400000000000091  4.861807580174902 0  11.049562682215743 0  L 97.23615160349854 0  L 367.95043731778424 0  C 374.138192419825 0  379 4.400000000000091  379 10  L 379 50  C 379 55.59999999999991  374.138192419825 60  367.95043731778424 60  L 11.049562682215743 60  C 4.861807580174902 60  0 55.59999999999991  0 50  Z " fill-rule="evenodd" />
    </mask>
  </defs>
  <g transform="matrix(1 0 0 1 -544 -950 )">
    <path d="M 0 50  L 0 10  C 0 4.400000000000091  4.861807580174902 0  11.049562682215743 0  L 97.23615160349854 0  L 367.95043731778424 0  C 374.138192419825 0  379 4.400000000000091  379 10  L 379 50  C 379 55.59999999999991  374.138192419825 60  367.95043731778424 60  L 11.049562682215743 60  C 4.861807580174902 60  0 55.59999999999991  0 50  Z " fill-rule="nonzero" fill="#f9f0ff" stroke="none" transform="matrix(1 0 0 1 544 950 )" />
    <path d="M 0 50  L 0 10  C 0 4.400000000000091  4.861807580174902 0  11.049562682215743 0  L 97.23615160349854 0  L 367.95043731778424 0  C 374.138192419825 0  379 4.400000000000091  379 10  L 379 50  C 379 55.59999999999991  374.138192419825 60  367.95043731778424 60  L 11.049562682215743 60  C 4.861807580174902 60  0 55.59999999999991  0 50  Z " stroke-width="2" stroke="#797979" fill="none" transform="matrix(1 0 0 1 544 950 )" mask="url(#clip56)" />
  </g>
</svg>