<?xml version="1.0" encoding="utf-8"?>
<svg version="1.1" xmlns:xlink="http://www.w3.org/1999/xlink" width="1072px" height="32px" xmlns="http://www.w3.org/2000/svg">
  <g transform="matrix(1 0 0 1 -312 -346 )">
    <path d="M 313 350  A 3 3 0 0 1 316 347 L 1380 347  A 3 3 0 0 1 1383 350 L 1383 374  A 3 3 0 0 1 1380 377 L 316 377  A 3 3 0 0 1 313 374 L 313 350  Z " fill-rule="nonzero" fill="#ffffff" stroke="none" />
    <path d="M 312.5 350  A 3.5 3.5 0 0 1 316 346.5 L 1380 346.5  A 3.5 3.5 0 0 1 1383.5 350 L 1383.5 374  A 3.5 3.5 0 0 1 1380 377.5 L 316 377.5  A 3.5 3.5 0 0 1 312.5 374 L 312.5 350  Z " stroke-width="1" stroke-dasharray="9,4" stroke="#e8e8e8" fill="none" stroke-dashoffset="0.5" />
  </g>
</svg>