<?xml version="1.0" encoding="utf-8"?>
<svg version="1.1" xmlns:xlink="http://www.w3.org/1999/xlink" width="28px" height="28px" xmlns="http://www.w3.org/2000/svg">
  <defs>
    <mask fill="white" id="clip58">
      <path d="M 0 24  L 0 4  C 0 1.759999999999991  1.759999999999991 0  4 0  L 20.599999999998545 0  L 24 0  C 26.24000000000001 0  28 1.759999999999991  28 4  L 28 17.200000000000728  L 28 18  L 28 18.80000000000291  L 28 24  C 28 26.24000000000001  26.24000000000001 28  24 28  C 21.75999999999999 28  4 28  4 28  C 1.759999999999991 28  0 26.24000000000001  0 24  Z " fill-rule="evenodd" />
    </mask>
  </defs>
  <g transform="matrix(1 0 0 1 -782 -887 )">
    <path d="M 0 24  L 0 4  C 0 1.759999999999991  1.759999999999991 0  4 0  L 20.599999999998545 0  L 24 0  C 26.24000000000001 0  28 1.759999999999991  28 4  L 28 17.200000000000728  L 28 18  L 28 18.80000000000291  L 28 24  C 28 26.24000000000001  26.24000000000001 28  24 28  C 21.75999999999999 28  4 28  4 28  C 1.759999999999991 28  0 26.24000000000001  0 24  Z " fill-rule="nonzero" fill="#ffffff" stroke="none" transform="matrix(1 0 0 1 782 887 )" />
    <path d="M 0 24  L 0 4  C 0 1.759999999999991  1.759999999999991 0  4 0  L 20.599999999998545 0  L 24 0  C 26.24000000000001 0  28 1.759999999999991  28 4  L 28 17.200000000000728  L 28 18  L 28 18.80000000000291  L 28 24  C 28 26.24000000000001  26.24000000000001 28  24 28  C 21.75999999999999 28  4 28  4 28  C 1.759999999999991 28  0 26.24000000000001  0 24  Z " stroke-width="2" stroke="#d9d9d9" fill="none" transform="matrix(1 0 0 1 782 887 )" mask="url(#clip58)" />
  </g>
</svg>